<?xml version="1.0" encoding="UTF-8"?><svg id="a" xmlns="http://www.w3.org/2000/svg" viewBox="0 0 218 60"><path d="M160.4,25.48c.38,0,.74.07,1.08.2s.65.32.92.56.49.53.66.85.28.68.32,1.07c.04.41,0,.81-.11,1.19s-.3.72-.54,1.02-.54.55-.88.74-.73.31-1.14.36l-7.3.77.3,2.86,6.5-.68s.05,0,.07,0,.05,0,.07,0,.05,0,.07,0,.05,0,.07,0c.35,0,.69.07,1,.19s.6.3.84.52.45.49.61.78.26.63.3.99c.04.38,0,.75-.1,1.09s-.27.66-.5.93-.5.51-.81.68-.67.29-1.05.33l-6.5.68.37,3.58,7.29-.76s.05,0,.08,0,.05,0,.08,0,.05,0,.08,0,.05,0,.08,0c.38,0,.74.07,1.08.2s.65.32.92.56.49.53.66.85.28.68.32,1.07c.04.41,0,.81-.11,1.19s-.3.72-.54,1.02-.54.55-.88.74-.73.31-1.14.36l-10.27,1.08s-.05,0-.08,0-.05,0-.08,0-.05,0-.08,0-.05,0-.08,0c-.38,0-.74-.07-1.08-.2s-.65-.32-.91-.56-.49-.53-.66-.85-.28-.68-.32-1.07l-1.88-17.9c-.04-.41,0-.81.11-1.19s.3-.72.54-1.02.54-.55.88-.74.73-.31,1.14-.36l10.28-1.08s.05,0,.08,0,.05,0,.08,0,.05,0,.08,0,.05,0,.08,0Z" style="fill:#fff;"/><path d="M128.02,23.42c.05,0,.1,0,.16,0s.11,0,.16.01.11.01.16.02.11.02.16.03c.4.09.77.25,1.09.48s.59.51.8.83.36.68.43,1.07.07.79-.01,1.19l-1.34,6.23,4.92,1.06,1.34-6.23c.08-.35.21-.68.39-.96s.41-.54.67-.75.56-.37.87-.49.65-.17,1-.17c.05,0,.1,0,.16,0s.11,0,.16.01.11.01.16.02.11.02.16.03c.4.09.77.25,1.09.48s.59.51.8.83.36.68.43,1.07.07.79-.01,1.19l-3.78,17.6c-.08.35-.21.68-.39.96s-.41.54-.67.75-.56.37-.87.49-.65.17-1,.17c-.05,0-.1,0-.16,0s-.11,0-.16-.01-.11-.01-.16-.02-.11-.02-.16-.03c-.4-.09-.77-.25-1.09-.48s-.59-.51-.8-.83-.36-.68-.43-1.07-.07-.79.01-1.19l1.18-5.5-4.92-1.06-1.18,5.5c-.08.35-.21.68-.39.96s-.41.54-.67.75-.56.37-.87.49-.65.17-1,.17c-.05,0-.1,0-.16,0s-.11,0-.16-.01-.11-.01-.16-.02-.11-.02-.16-.03c-.4-.09-.77-.25-1.09-.48s-.59-.51-.8-.83-.36-.68-.43-1.07-.07-.79.01-1.19l3.78-17.6c.08-.35.21-.68.39-.97s.41-.54.67-.75.56-.37.87-.49.65-.17,1-.17Z" style="fill:#fff;"/><path d="M190.74,36.44c.31.28.55.6.72.95s.26.73.29,1.11-.03.77-.15,1.14-.32.72-.6,1.03c-.09.1-.18.19-.27.27s-.19.16-.3.23-.21.13-.32.19-.22.1-.34.14c-.08.03-.17.06-.25.08s-.17.04-.25.06-.17.03-.26.03-.17.01-.26.01c-.18,0-.35-.02-.53-.05s-.35-.08-.52-.14-.33-.14-.49-.24-.31-.21-.45-.33l-5.99-5.32-2.32.84,1.9,5.27c.14.39.2.79.17,1.18s-.12.77-.28,1.12-.39.66-.68.93-.63.48-1.02.62c-.08.03-.17.06-.25.08s-.17.04-.25.06-.17.03-.25.03-.17.01-.25.01c-.31,0-.61-.05-.9-.14s-.56-.22-.81-.4-.47-.38-.66-.62-.34-.52-.45-.83l-6.1-16.93c-.14-.39-.2-.79-.17-1.18s.12-.77.28-1.11.39-.66.68-.93.63-.48,1.02-.62l6.31-2.27c.21-.08.43-.14.65-.2s.43-.1.65-.14.44-.07.65-.08.43-.03.65-.03c.79,0,1.57.12,2.31.35s1.44.57,2.08,1.01,1.21.98,1.7,1.6.88,1.33,1.17,2.12c.21.58.34,1.17.41,1.76s.06,1.18,0,1.75-.2,1.14-.4,1.68-.45,1.06-.75,1.54l4.93,4.38ZM179.98,29.76c.25-.09.47-.23.66-.4s.33-.38.44-.6.17-.47.18-.72-.02-.51-.11-.76c-.07-.2-.17-.38-.29-.53s-.27-.29-.43-.4-.34-.2-.52-.26-.38-.09-.58-.09c-.05,0-.11,0-.16,0s-.11.01-.16.02-.11.02-.16.04-.11.03-.16.05l-3.48,1.26,1.31,3.65,3.48-1.26" style="fill:#fff;"/><path d="M89.17,11.93c.06,0,.12,0,.18,0s.12,0,.19.02.12.02.19.03.12.03.19.04c.4.1.76.28,1.07.52s.57.53.77.86.33.7.39,1.08.04.79-.06,1.19l-3.7,14.54,6.05,1.54c.4.1.76.28,1.07.52s.57.53.77.86.33.7.39,1.08.04.79-.06,1.19c-.09.34-.23.65-.41.93s-.41.52-.67.71-.55.35-.85.46-.64.16-.97.16c-.06,0-.12,0-.18,0s-.12,0-.19-.02-.12-.02-.19-.03-.12-.03-.19-.04l-8.95-2.28c-.4-.1-.76-.28-1.07-.52s-.57-.53-.77-.86-.33-.7-.39-1.08-.04-.79.06-1.19l4.44-17.44c.09-.34.23-.65.41-.93s.41-.52.67-.71.55-.35.85-.46.64-.16.97-.16Z" style="fill:#fff;"/><path d="M76.35,29.78c.13.35.18.72.16,1.07s-.11.7-.26,1.01-.36.6-.62.84-.57.43-.92.56c-.07.02-.14.05-.2.06s-.14.03-.21.05-.14.02-.21.03-.14.01-.21.02c0,0-.02,0-.02,0s-.02,0-.02,0-.02,0-.02,0-.02,0-.02,0c-.28,0-.55-.04-.81-.13s-.51-.2-.73-.36-.43-.35-.6-.57-.31-.47-.41-.75l-1.11-3.08-6.06.22-.88,3.16c-.08.3-.22.58-.38.82s-.37.45-.61.63-.49.31-.77.4-.57.14-.86.14c-.06,0-.12,0-.18,0s-.12-.01-.18-.02-.12-.02-.18-.03-.12-.03-.18-.04c-.36-.1-.69-.27-.96-.49s-.51-.49-.68-.79-.28-.64-.33-.99-.02-.72.08-1.08l5.19-18.64c.06-.23.16-.45.28-.66s.27-.39.43-.55.35-.31.56-.42.43-.21.66-.27c.21-.06.39-.1.54-.13s.28-.06.39-.07.19-.02.25-.03.11,0,.15,0c0,0,.01,0,.02,0s.02,0,.03,0,.02,0,.03,0,.02,0,.03,0c.05,0,.1,0,.18,0s.16,0,.25.02.21.02.35.04.28.04.45.08c.24.04.47.12.68.22s.41.23.59.38.34.33.47.52.24.41.33.63l6.56,18.2ZM65.67,23.01l2.43-.09-1.35-3.76-1.07,3.85" style="fill:#fff;"/><path d="M217,34.35c-.64-.92-1.61-2.13-2.99-3.44s-3.17-2.7-5.45-3.98c-2.28-1.28-5.06-2.44-8.4-3.28,1.11-3.66,1.67-6.96,1.88-9.86.21-2.9.07-5.4-.21-7.44-.28-2.04-.69-3.62-1.04-4.7-.35-1.08-.63-1.64-.63-1.65-.03.02-1.66,1.08-4.49,2.65-2.83,1.57-6.85,3.67-11.68,5.75-4.83,2.09-10.45,4.17-16.48,5.74s-12.45,2.61-18.88,2.61-13.21-1.05-19.81-2.62c-6.61-1.57-13.21-3.66-19.82-5.76-6.61-2.09-13.21-4.19-19.82-5.76-6.61-1.57-13.21-2.62-19.82-2.62-8.67,0-17.23,1.42-25.22,3.58-7.99,2.16-15.42,5.04-21.81,7.97-6.4,2.92-11.76,5.89-15.64,8.19-3.88,2.31-6.26,3.96-6.7,4.26.06.11.36.73,1,1.65.64.92,1.61,2.13,2.99,3.44,1.38,1.31,3.17,2.7,5.45,3.98,2.28,1.28,5.06,2.44,8.4,3.28-1.11,3.66-1.69,6.94-1.91,9.81-.23,2.87-.11,5.32.16,7.34.26,2.01.68,3.58,1.03,4.67.36,1.09.67,1.71.72,1.82.32-.21,2.09-1.36,4.97-2.97,2.88-1.61,6.86-3.68,11.61-5.72,4.75-2.04,10.26-4.06,16.2-5.56,5.94-1.5,12.3-2.5,18.75-2.5s13.21,1.05,19.81,2.62c6.61,1.57,13.21,3.66,19.82,5.76,6.61,2.09,13.21,4.19,19.82,5.76,6.61,1.57,13.22,2.62,19.82,2.62,8.67,0,17.23-1.42,25.22-3.58,7.99-2.16,15.42-5.04,21.81-7.97,6.4-2.93,11.76-5.89,15.64-8.19,3.88-2.31,6.26-3.96,6.7-4.26-.06-.11-.36-.73-1-1.65ZM196.6,40.11c-4.21,2.05-8.99,4.16-14.15,6.07-5.16,1.91-10.69,3.61-16.4,4.84-5.7,1.23-11.58,1.98-17.42,1.98-3.04,0-6.09-.24-9.16-.68-3.07-.43-6.16-1.05-9.28-1.8-3.12-.75-6.27-1.63-9.45-2.58-3.19-.95-6.41-1.97-9.68-3.01-3.37-1.07-6.77-2.15-10.2-3.16-3.43-1.02-6.88-1.97-10.36-2.79-3.48-.82-6.98-1.51-10.51-1.99-3.52-.48-7.07-.76-10.64-.76-4.59,0-9.15.48-13.57,1.27-4.42.8-8.71,1.92-12.75,3.2-4.03,1.28-7.82,2.73-11.23,4.19-3.42,1.46-6.46,2.93-9.03,4.25,0-.72.02-1.49.07-2.3.06-.81.15-1.67.28-2.57.13-.9.3-1.84.52-2.82.22-.98.49-2.01.81-3.07l2.15-7.07-7.11-1.78c-.96-.24-1.86-.52-2.71-.82-.84-.3-1.63-.63-2.35-.97-.73-.34-1.4-.71-2.02-1.08s-1.19-.75-1.7-1.13c2.84-1.65,6.47-3.63,10.67-5.68,4.21-2.05,8.99-4.16,14.15-6.07,5.16-1.91,10.69-3.61,16.4-4.84,5.7-1.23,11.58-1.98,17.42-1.98,3.04,0,6.09.24,9.16.68,3.07.43,6.16,1.05,9.28,1.8,3.12.75,6.27,1.63,9.45,2.58,3.19.95,6.41,1.97,9.68,3.01,3.37,1.07,6.77,2.15,10.2,3.16,3.43,1.02,6.88,1.97,10.36,2.79,3.48.82,6.98,1.51,10.51,1.99,3.53.48,7.07.76,10.64.76,4.58,0,9.14-.48,13.56-1.27,4.42-.8,8.71-1.92,12.75-3.2,4.03-1.28,7.82-2.73,11.24-4.19,3.42-1.46,6.47-2.93,9.03-4.25,0,.72-.02,1.49-.08,2.3-.06.81-.15,1.67-.28,2.57-.13.9-.3,1.84-.52,2.82-.22.98-.49,2.01-.81,3.07l-2.15,7.07,7.11,1.78c.96.24,1.86.52,2.71.82.84.3,1.63.63,2.35.97s1.4.71,2.02,1.08c.62.37,1.19.75,1.7,1.13-2.84,1.65-6.47,3.63-10.67,5.68" style="fill:#fff;"/><path d="M104.89,16.26c.07,0,.15,0,.23,0s.15.01.23.03.15.03.23.04.15.04.23.06l6.04,1.91s.01,0,.02,0,.01,0,.02,0,.01,0,.02,0,.01,0,.02,0c0,0,.01,0,.02,0s.01,0,.02,0,.01,0,.02,0,.01,0,.02,0l6.04,1.91c.39.12.74.32,1.04.58s.54.56.71.9.29.71.32,1.1,0,.79-.13,1.18c-.1.32-.25.61-.44.87s-.41.48-.66.66-.53.32-.83.42-.61.15-.93.15c-.08,0-.15,0-.23,0s-.15-.01-.23-.03-.15-.03-.23-.04-.15-.04-.23-.06l-3.25-1.03-4.53,14.3c-.1.32-.25.61-.44.87s-.41.48-.67.66-.53.32-.83.42-.61.15-.93.15c-.08,0-.15,0-.23,0s-.15-.01-.23-.03-.15-.03-.23-.04-.15-.04-.23-.06c-.39-.13-.75-.32-1.04-.58s-.54-.56-.71-.9-.29-.72-.32-1.1,0-.79.13-1.18l4.53-14.3-3.25-1.03c-.39-.12-.75-.32-1.04-.58s-.54-.56-.71-.9-.29-.71-.32-1.1,0-.79.13-1.18c.1-.32.25-.61.44-.87s.41-.48.66-.66.53-.32.83-.42.61-.15.93-.15Z" style="fill:#fff;"/><path d="M48.46,11.82c.41,0,.8.08,1.16.23s.69.36.97.62.51.58.68.93.27.74.3,1.16l1.11,18.31s0,.06,0,.08,0,.04,0,.06,0,.03,0,.04,0,.02,0,.03c0,.01,0,.03,0,.04s0,.03,0,.04,0,.03,0,.04,0,.03,0,.04c0,0,0,.02,0,.03s0,.02,0,.03,0,.02,0,.03,0,.02,0,.03c0,.02,0,.04,0,.06s0,.04,0,.06,0,.04,0,.06,0,.04,0,.06c-.01.06-.02.12-.03.17s-.02.1-.04.15-.03.1-.04.14-.03.09-.05.14c-.01.03-.03.06-.04.09s-.02.05-.03.07-.02.04-.02.05-.01.03-.02.05c0,0,0,.02-.01.03s0,.02-.01.02,0,.02-.01.02,0,.02-.01.03c0,.01-.01.02-.02.04s-.01.02-.02.03-.01.02-.02.03-.01.02-.02.03c0,0-.01.02-.02.03s-.01.02-.02.03-.01.02-.02.03-.01.02-.02.03c0,.01-.01.02-.02.03s-.01.02-.02.03-.01.02-.02.03-.02.02-.02.03c0,0-.01.02-.02.03s-.01.02-.02.03-.01.02-.02.03-.01.02-.02.03c0,.01-.02.02-.03.04s-.02.02-.03.04-.02.02-.03.04-.02.02-.03.04c0,0-.02.02-.02.03s-.02.02-.02.03-.02.02-.02.03-.02.02-.02.02c-.01.01-.03.03-.04.04s-.03.03-.04.04-.03.03-.04.04-.03.03-.04.04c0,0-.01.01-.02.02s-.01,0-.02.01-.01,0-.02.01-.01,0-.02.01c-.01.01-.03.02-.04.03s-.03.02-.04.03-.03.02-.04.03-.03.02-.04.03c-.03.02-.05.04-.08.05s-.04.03-.05.03-.03.02-.04.02-.02.01-.03.02c0,0-.02.01-.03.02s-.02,0-.02.01-.02,0-.02.01-.02,0-.03.01c0,0-.02,0-.03.01s-.02,0-.03.01-.02,0-.03.01-.02,0-.03.01c0,0-.02.01-.03.01s-.02,0-.03.01-.02,0-.03.01-.02,0-.03.01c0,0-.02,0-.02.01s-.02,0-.02.01-.02,0-.02.01-.02,0-.02.01c-.02,0-.03.01-.05.02s-.03.01-.05.02-.03.01-.05.02-.03.01-.05.02c-.03.01-.07.02-.1.03s-.06.02-.09.03-.06.01-.09.02-.06.01-.09.02c-.05,0-.09.02-.13.02s-.07.01-.11.02-.07,0-.1.01-.06,0-.09,0c-.03,0-.05,0-.07,0s-.04,0-.06,0-.03,0-.05,0-.03,0-.04,0c-.02,0-.04,0-.06,0s-.03,0-.04,0-.02,0-.03,0-.02,0-.03,0c-.01,0-.03,0-.04,0s-.03,0-.05,0-.03,0-.05,0-.03,0-.04,0c0,0-.02,0-.03,0s-.02,0-.03,0-.02,0-.03,0-.02,0-.03,0c-.02,0-.03,0-.05,0s-.03,0-.05,0-.03,0-.05,0-.03,0-.05,0c-.01,0-.03,0-.04,0s-.03,0-.04,0-.03,0-.04,0-.03,0-.04,0c-.02,0-.03,0-.05-.01s-.03,0-.05-.01-.03,0-.05-.01-.03,0-.05-.02c0,0-.02,0-.03,0s-.02,0-.03-.01-.02,0-.03-.01-.02,0-.03-.01c-.01,0-.03-.01-.04-.02s-.03-.01-.04-.02-.03-.01-.04-.02-.03-.01-.04-.02c0,0-.02,0-.02-.01s-.02,0-.02-.01-.02,0-.02-.01-.02,0-.02-.01c-.01,0-.03-.01-.04-.02s-.03-.01-.04-.02-.03-.02-.04-.02-.03-.02-.04-.02c0,0-.01,0-.02-.01s-.01,0-.02-.01-.01,0-.02-.01-.01,0-.02-.01c-.02-.01-.03-.02-.05-.03s-.03-.02-.05-.03-.03-.02-.05-.03-.03-.02-.05-.04c-.04-.03-.09-.06-.13-.1s-.08-.06-.12-.1-.07-.07-.11-.1-.07-.07-.1-.1c0,0-.01-.01-.02-.02s0-.01-.01-.02,0-.01-.01-.02,0-.01-.02-.02c-.01-.01-.02-.02-.03-.04s-.02-.02-.03-.04-.02-.02-.03-.04-.02-.02-.03-.04c0,0-.01-.02-.02-.02s-.01-.02-.02-.02-.01-.02-.02-.02-.01-.02-.02-.03c0,0,0-.01-.01-.02s0-.01-.01-.02,0-.01-.01-.02,0-.01-.01-.02l-4.53-6.6.2,8s0,.01,0,.02,0,.01,0,.02,0,.01,0,.02,0,.01,0,.02c0,.01,0,.02,0,.03s0,.02,0,.03,0,.02,0,.03,0,.02,0,.03c0,.02,0,.03,0,.05s0,.03,0,.05,0,.03,0,.05,0,.03,0,.05c0,0,0,.01,0,.02s0,.01,0,.02,0,.02,0,.02,0,.02,0,.02c0,.05-.01.1-.02.14s-.02.09-.03.14-.02.09-.03.14-.03.09-.04.14c0,.03-.02.05-.03.08s-.02.05-.02.07-.02.04-.02.06-.01.04-.02.06c0,0,0,.01,0,.02s0,.01,0,.02,0,.01,0,.02,0,.01,0,.02c0,.01-.01.03-.02.04s-.01.03-.02.04-.01.03-.02.04-.01.03-.02.04c0,0,0,.02-.01.02s0,.02-.01.02,0,.02-.01.02,0,.02-.01.02c0,.01-.01.02-.02.04s-.01.02-.02.04-.02.02-.02.04-.02.02-.02.03c0,0-.01.02-.02.02s-.01.02-.02.02-.01.02-.02.02-.01.02-.02.02c0,.01-.02.03-.03.04s-.02.03-.03.04-.02.03-.03.04-.02.03-.03.04c0,.01-.02.02-.02.03s-.02.02-.03.03-.02.02-.03.03-.02.02-.03.03c-.01.01-.02.02-.03.03s-.02.02-.03.03-.02.02-.03.03-.02.02-.03.03c0,0-.01.01-.02.02s-.01.01-.02.02-.01.01-.02.02-.01.01-.02.02c-.01.01-.02.02-.03.03s-.02.02-.03.03-.02.02-.03.03-.02.02-.04.03c0,0-.01.01-.02.02s-.01.01-.02.02-.01.01-.02.02-.01.01-.02.02c-.02.01-.03.02-.05.04s-.03.02-.05.03-.03.02-.05.03-.03.02-.05.03c-.03.02-.07.04-.1.06s-.06.04-.09.05-.06.03-.08.04-.05.03-.08.04c-.04.02-.08.04-.12.05s-.07.03-.1.04-.06.02-.09.03-.06.02-.08.03c-.02,0-.04.01-.07.02s-.04.01-.06.02-.04,0-.05.01-.04,0-.05.01c0,0-.02,0-.03,0s-.02,0-.03,0-.02,0-.03,0-.02,0-.03,0c-.01,0-.02,0-.03,0s-.02,0-.03,0-.02,0-.03,0-.02,0-.03,0c0,0-.02,0-.03,0s-.02,0-.03,0-.02,0-.03,0-.02,0-.03,0c0,0-.02,0-.03,0s-.02,0-.03,0-.02,0-.03,0-.02,0-.03,0c-.01,0-.02,0-.03,0s-.02,0-.03,0-.02,0-.03,0-.02,0-.03,0c-.05,0-.09,0-.13,0s-.06,0-.09,0-.04,0-.06,0-.03,0-.04,0c0,0-.02,0-.02,0s-.01,0-.02,0-.01,0-.02,0-.01,0-.02,0c-.02,0-.04,0-.06,0s-.04,0-.06,0-.04,0-.06,0-.04,0-.06,0c0,0-.02,0-.03,0s-.02,0-.03,0-.02,0-.03,0-.02,0-.03,0c-.02,0-.03,0-.05-.01s-.03,0-.05-.01-.03,0-.05-.01-.03,0-.05-.01c-.01,0-.02,0-.03,0s-.02,0-.03,0-.02,0-.03,0-.02,0-.03,0c-.01,0-.02,0-.04-.01s-.02,0-.04-.01-.02,0-.04-.01-.02,0-.04-.01c0,0-.02,0-.03-.01s-.02,0-.03-.01-.02,0-.03-.01-.02,0-.03-.01c-.01,0-.03-.01-.04-.02s-.03-.01-.04-.02-.03-.01-.04-.02-.03-.01-.04-.02c0,0-.02,0-.02-.01s-.02,0-.02-.01-.02,0-.02-.01-.02,0-.02-.01c-.01,0-.03-.02-.04-.02s-.03-.02-.04-.03-.03-.02-.04-.03-.03-.02-.04-.03c-.06-.04-.11-.07-.15-.1s-.09-.07-.13-.1-.08-.06-.12-.1-.07-.06-.11-.1c-.02-.02-.04-.04-.06-.06s-.03-.03-.05-.05-.03-.03-.04-.05-.03-.03-.04-.05c0,0-.01-.01-.02-.02s-.01-.01-.02-.02-.01-.01-.02-.02-.01-.01-.02-.02c0-.01-.02-.02-.03-.03s-.02-.02-.03-.03-.02-.02-.03-.03-.02-.02-.03-.03c0,0-.01-.02-.02-.03s-.01-.02-.02-.03-.01-.02-.02-.03-.01-.02-.02-.03l-9.87-15.55c-.23-.36-.38-.76-.44-1.16s-.05-.81.03-1.2.25-.76.48-1.1.53-.63.89-.86c.13-.08.26-.15.4-.21s.27-.11.41-.15.28-.07.42-.09.29-.03.43-.03c.26,0,.52.03.76.09s.49.16.72.28.44.27.64.45.37.39.52.62l3.79,5.97-.18-7.25s0-.04,0-.06,0-.04,0-.06,0-.04,0-.05,0-.03,0-.05c0,0,0-.02,0-.03s0-.02,0-.03,0-.02,0-.03,0-.02,0-.03c0-.01,0-.03,0-.04s0-.03,0-.04,0-.03,0-.04,0-.03,0-.04c0-.01,0-.02,0-.04s0-.03,0-.04,0-.03,0-.04,0-.02,0-.04c.02-.07.03-.14.05-.21s.03-.13.05-.18.04-.11.06-.17.04-.1.06-.15c.04-.09.09-.18.14-.27s.11-.18.17-.26.12-.17.19-.24.14-.15.22-.23c0,0,.01-.01.02-.02s.01-.01.02-.02.01-.01.02-.02.01-.01.02-.02c0,0,.02-.01.03-.02s.02-.01.03-.02.02-.01.03-.02.02-.01.03-.02c.01,0,.02-.02.04-.03s.02-.02.04-.03.02-.02.04-.03.02-.02.04-.03c.01,0,.02-.02.03-.02s.02-.01.03-.02.01,0,.02-.01.01,0,.02-.01c.01,0,.03-.02.04-.03s.03-.02.04-.03.03-.02.04-.03.03-.02.04-.02c0,0,.02,0,.03-.01s.02,0,.03-.01.02,0,.03-.01.02,0,.03-.01c.01,0,.03-.01.04-.02s.03-.01.04-.02.03-.01.04-.02.03-.01.04-.02c.01,0,.02,0,.03-.01s.02,0,.03-.01.02,0,.03-.01.02,0,.03-.01c.01,0,.03-.01.04-.02s.03-.01.04-.02.03-.01.04-.01.03,0,.04-.01c.01,0,.02,0,.04-.01s.02,0,.04-.01.02,0,.04,0,.02,0,.04,0c.01,0,.02,0,.04-.01s.02,0,.04,0,.02,0,.04,0,.03,0,.04,0c.01,0,.03,0,.04,0s.03,0,.04,0,.03,0,.04,0,.03,0,.04,0c.01,0,.02,0,.03,0s.02,0,.03,0,.02,0,.03,0,.02,0,.03,0c.02,0,.03,0,.05,0s.03,0,.05,0,.03,0,.05,0,.03,0,.05,0c0,0,.02,0,.02,0s.02,0,.02,0,.02,0,.02,0,.02,0,.02,0c.03,0,.05,0,.07,0s.04,0,.05,0,.03,0,.04,0,.03,0,.04,0c.01,0,.02,0,.03,0s.02,0,.03,0,.02,0,.03,0,.02,0,.03,0c.01,0,.02,0,.03,0s.02,0,.03,0,.02,0,.03,0,.02,0,.03,0c.01,0,.03,0,.04,0s.03,0,.04,0,.03,0,.04,0,.03,0,.04,0c.08.02.16.03.23.05s.15.04.22.07.14.05.21.08.13.06.2.09c.06.03.12.07.18.1s.12.08.18.12.12.08.17.13.11.09.16.14c.02.02.04.03.05.05s.03.03.04.04.02.02.03.03.02.02.03.03c0,0,.02.02.02.03s.02.02.02.03.02.02.02.03.02.02.02.03c0,0,.01.01.02.02s.01.02.02.02.01.02.02.02.01.02.02.02c.01.01.02.03.03.04s.02.03.03.04.02.03.03.04.02.03.03.04l4.14,6.02-.43-7.09c-.03-.43.04-.84.17-1.23s.34-.73.61-1.03.59-.55.95-.73.77-.29,1.2-.32c.02,0,.03,0,.05,0s.03,0,.05,0,.03,0,.05,0,.03,0,.05,0Z" style="fill:#fff;"/><path d="M211,48c2.75,0,5,2.25,5,5s-2.25,5-5,5-5-2.25-5-5,2.25-5,5-5ZM211,56.88c2.13,0,3.87-1.74,3.87-3.87s-1.74-3.87-3.87-3.87-3.87,1.74-3.87,3.87,1.74,3.87,3.87,3.87ZM208.99,55.51v-5.16h2.11c1.42,0,1.92.85,1.92,1.56,0,.81-.42,1.3-1.11,1.54l1.36,2.06h-1.17l-1.26-1.92h-.83v1.92h-1.03ZM210.88,52.73c.77,0,1.11-.24,1.11-.79,0-.47-.36-.69-1.01-.69h-.97v1.48h.87Z" style="fill:#fff;"/></svg>